<svg xmlns="http://www.w3.org/2000/svg" xml:space="preserve" width="239.54158" height="231.17612" viewBox="0 0 239.54158 231.17612"><defs><clipPath id="a" clipPathUnits="userSpaceOnUse"><path d="M40.098 65.863h19.374V47.167H40.098z"/></clipPath><clipPath id="b" clipPathUnits="userSpaceOnUse"><path d="M40.098 47.167h19.374v18.696H40.098Z"/></clipPath><clipPath id="c" clipPathUnits="userSpaceOnUse"><path d="M48.145 60.061h3.801v-1.943h-3.801z"/></clipPath><clipPath id="d" clipPathUnits="userSpaceOnUse"><path d="M48.145 58.118h3.802v1.943h-3.802z"/></clipPath></defs><g style="stroke-width:.830788"><g style="stroke-width:.107828"><g style="stroke-width:.107828"><g clip-path="url(#a)" opacity="0.960007" style="stroke-width:.0185802" transform="matrix(12.36534 0 0 -12.36534 -495.83 814.416)"><g clip-path="url(#b)" style="stroke-width:.107828"><path d="M0 0c.362.465.746 1.374.746 1.374 1.572.081 4.638.081 6.642.081 1.532-2.477 3.811-4.795 6.287-6.327.121-2.092.117-4.167.117-6.091-.667-.119-4.911-3.617-6.444-6.209-1.611 0-5.899-.124-6.012-.04-.512.393-1.375 2.161-2.555 2.869-1.414 1.297-2.75 2.24-4.361 3.419v6.012C-3.34-3.733-1.651-2.121 0 0" style="fill:#9c9fa6;fill-opacity:1;fill-rule:nonzero;stroke:none;stroke-width:.107828" transform="translate(45.678 64.409)"/></g></g></g></g><g style="stroke-width:.107828"><path d="M0 0c.122-.122.406-.486.528-.608-2.913-.849-6.392-.89-9.425-.282.848.849 2.02 2.791 2.02 2.791s3.681.081 5.218.081C-1.659 1.982-.727.727 0 0" style="fill:#40b44d;fill-opacity:1;fill-rule:nonzero;stroke:none;stroke-width:.107828" transform="matrix(12.36534 0 0 -12.36534 173.075 33.208)"/></g><g style="stroke-width:.107828"><path d="M0 0c0-1.214.001-3.317-.281-4.45-1.012.687-2.811 1.969-3.035 2.306-.082.121 0 3.156 0 4.895.848.607 2.064 1.295 2.792 2.022C-.038 2.164 0 1.824 0 0" style="fill:#40b44d;fill-opacity:1;fill-rule:nonzero;stroke:none;stroke-width:.107828" transform="matrix(12.36534 0 0 -12.36534 51.52 119.748)"/></g><g style="stroke-width:.107828"><path d="M0 0c-.029-.17-1.98-1.374-2.668-2.105-.607 2.831-.647 6.433 0 9.306C-.591 5.498-.01 5.17-.012 5.08-.029 4.056.025.134 0 0" style="fill:#40b44d;fill-opacity:1;fill-rule:nonzero;stroke:none;stroke-width:.107828" transform="matrix(12.36534 0 0 -12.36534 229.6 147.258)"/></g><g style="stroke-width:.107828"><path d="M0 0c-.228-.075-4.398-.032-5.231-.055l-2.126 2.484c1.129.485 6.797.861 9.231-.093C1.53 1.882.066.023 0 0" style="fill:#40b44d;fill-opacity:1;fill-rule:nonzero;stroke:none;stroke-width:.107828" transform="matrix(12.36534 0 0 -12.36534 156.016 219.831)"/></g><g style="stroke-width:.107828"><path d="M0 0c1.012 0-2.831-.041-2.872.121a35 35 0 0 0-.445 2.629c.849-.242 2.305-.404 3.237-.484C-.028-.109-.014 0 0 0" style="fill:#40b44d;fill-opacity:1;fill-rule:nonzero;stroke:none;stroke-width:.107828" transform="matrix(12.36534 0 0 -12.36534 96.56 85.73)"/></g><g style="stroke-width:.107828"><path d="M0 0c0 .069-2.711.122-2.711.079 0-.494-.435-2.552-.485-2.993 1.012.122 2.306.365 3.276.365C.08-2.549 0-.347 0 0" style="fill:#40b44d;fill-opacity:1;fill-rule:nonzero;stroke:none;stroke-width:.107828" transform="matrix(12.36534 0 0 -12.36534 96.56 144.254)"/></g><g style="stroke-width:.107828"><path d="M0 0c0-.069 2.407.061 2.589.061.04 0 .171 1.962.256 2.72.152.043-2.308-.69-2.925-.636C-.08 2.145 0 .348 0 0" style="fill:#40b44d;fill-opacity:1;fill-rule:nonzero;stroke:none;stroke-width:.107828" transform="matrix(12.36534 0 0 -12.36534 151.582 82.74)"/></g><g style="stroke-width:.107828"><path d="M0 0c0 .069 1.982 0 2.427 0 0 0 .342-2.231.43-2.989-.85.241-1.926.276-2.776.521C.081-2.468 0-.348 0 0" style="fill:#40b44d;fill-opacity:1;fill-rule:nonzero;stroke:none;stroke-width:.107828" transform="matrix(12.36534 0 0 -12.36534 152.577 145.25)"/></g><g style="stroke-width:.107828"><path d="M0 0s1.031-.141 2.286-.101C3.54-.06 4.47.041 4.47.041l.082-2.144 2.568.122s-.121-1.518-.121-2.327.06-2.893.06-2.893l-2.406.143.08-2.508s-.89.1-2.345.1c-1.457 0-2.206-.08-2.206-.08l-.08 2.548-2.691.041s.079 1.296 0 2.709c-.08 1.437-.181 2.064-.181 2.064l2.851-.101z" style="fill:#fff;fill-opacity:1;fill-rule:nonzero;stroke:none;stroke-width:.107828" transform="matrix(12.36534 0 0 -12.36534 95.303 57.23)"/></g><g style="stroke-width:.107828"><path d="M0 0a.18.18 0 0 1 .179-.183L.928-.19a.184.184 0 0 1 .186.179.187.187 0 0 1-.182.186L.183.179A.18.18 0 0 1 0 0" style="fill:#40b44d;fill-opacity:1;fill-rule:nonzero;stroke:none;stroke-width:.107828" transform="matrix(12.36534 0 0 -12.36534 131.748 90.396)"/></g><g style="stroke-width:.107828"><path d="m0 0 .224-.175-.04-.197c-.098-.04-.238-.096-.28-.111h-1.128l-.272.162v.205l.118.079zm.056.366L-1.441.324a.16.16 0 0 1-.096-.03L-1.78.133a.19.19 0 0 1-.081-.152v-.404a.18.18 0 0 1 .089-.156l.404-.243a.2.2 0 0 1 .094-.026h1.213a.2.2 0 0 1 .068.013l.404.163c.058.021.1.071.112.132l.081.405a.18.18 0 0 1-.068.179L.173.327a.2.2 0 0 1-.117.039" style="fill:#40b44d;fill-opacity:1;fill-rule:nonzero;stroke:none;stroke-width:.107828" transform="matrix(12.36534 0 0 -12.36534 121.999 84.271)"/></g><g style="stroke-width:.107828"><path d="m0 0 2.689-.039.203-.154v-.12l-.205-.103-.28-.07C2.36-.484.124-.447.044-.446l-.142.072-.061.161zm-.114.321A.18.18 0 0 1-.268.25l-.243-.324a.19.19 0 0 1-.024-.172l.121-.325a.2.2 0 0 1 .09-.099l.243-.121A.2.2 0 0 1-.004-.81l2.428-.041q.025 0 .046.006l.326.081q.017.005.037.014l.323.163c.061.03.101.093.101.162v.323a.18.18 0 0 1-.074.145L2.86.286a.2.2 0 0 1-.106.038L.002.364A.18.18 0 0 1-.114.321" style="fill:#40b44d;fill-opacity:1;fill-rule:nonzero;stroke:none;stroke-width:.107828" transform="matrix(12.36534 0 0 -12.36534 105.24 101.75)"/></g><g style="stroke-width:.107828"><path d="m0 0-3.196-.041a.181.181 0 1 1 .004-.363l3.013.036v-.244c-.053-.033-.082-.053-.116-.076h-2.94c-.1 0-.18-.082-.18-.184 0-.099.08-.18.18-.18H-.24q.054 0 .1.03l.243.161c.05.036.08.091.08.152v.527a.17.17 0 0 1-.054.129A.2.2 0 0 1 0 0" style="fill:#40b44d;fill-opacity:1;fill-rule:nonzero;stroke:none;stroke-width:.107828" transform="matrix(12.36534 0 0 -12.36534 141.903 150.495)"/></g><g style="stroke-width:.107828"><g style="stroke-width:.107828"><g clip-path="url(#c)" opacity="0.979996" style="stroke-width:.0185802" transform="matrix(12.36534 0 0 -12.36534 -495.83 814.416)"><g clip-path="url(#d)" style="stroke-width:.107828"><path d="M0 0a.182.182 0 0 1 0-.364h2.999l.219-.219c.003-.129.038-1.183.038-1.183a.183.183 0 0 1 .364.012L3.579-.5a.18.18 0 0 1-.053.124l-.323.323a.2.2 0 0 1-.13.053Z" style="fill:#40b44d;fill-opacity:1;fill-rule:nonzero;stroke:none;stroke-width:.107828" transform="translate(48.327 60.06)"/></g></g></g></g><g style="stroke-width:.107828"><path d="M0 0a.182.182 0 0 1 0-.364h.688c.1 0 .183.082.183.182A.183.183 0 0 1 .688 0Z" style="fill:#40b44d;fill-opacity:1;fill-rule:nonzero;stroke:none;stroke-width:.107828" transform="matrix(12.36534 0 0 -12.36534 134.754 81.251)"/></g><g style="stroke-width:.107828"><path d="M0 0a.18.18 0 0 1-.182-.182c0-.1.082-.183.182-.183h2.858l.145-.097c.017-.057.04-.123.051-.155v-1.346a.18.18 0 0 1 .182-.181c.1 0 .182.08.182.181v1.377a.2.2 0 0 1-.009.057l-.082.243a.17.17 0 0 1-.071.093l-.243.163a.2.2 0 0 1-.1.03Z" style="fill:#40b44d;fill-opacity:1;fill-rule:nonzero;stroke:none;stroke-width:.107828" transform="matrix(12.36534 0 0 -12.36534 101.746 122.262)"/></g><g style="stroke-width:.107828"><path d="M0 0a.183.183 0 0 1 0-.365h.384v-.181c0-.1.083-.181.183-.181s.181.081.181.181v.364A.18.18 0 0 1 .567 0Z" style="fill:#40b44d;fill-opacity:1;fill-rule:nonzero;stroke:none;stroke-width:.107828" transform="matrix(12.36534 0 0 -12.36534 141.759 137.767)"/></g><g style="stroke-width:.107828"><path d="M0 0v-.004a.18.18 0 0 1 .179-.18l2.289-.04v-.162H.182a.18.18 0 0 1-.133-.06.18.18 0 0 1-.048-.137l.04-.527a.18.18 0 0 1 .184-.166l2.508.039a.184.184 0 0 1 .181.184.185.185 0 0 1-.187.181L.391-.912.378-.75h2.273c.1 0 .18.08.18.181v.526a.18.18 0 0 1-.178.182L.185.178A.18.18 0 0 1 0 0" style="fill:#40b44d;fill-opacity:1;fill-rule:nonzero;stroke:none;stroke-width:.107828" transform="matrix(12.36534 0 0 -12.36534 99.984 131.983)"/></g></g></svg>